# xmcd
#
# Track frame offsets:
#	150
#	17091
#	34855
#	49595
#	62648
#	78167
#	91210
#	108302
#	127763
#	143453
#	156325
#	171247
#	188109
#	202538
#	221171
#	236921
#	253323
#	267557
#	282098
#
# Disc length: 3969 seconds
#
# Revision: 2
# Processed by: cddbd v1.5.2PL0 Copyright (c) Steve Scherf et al.
# Submitted via: EZCDAudioConverter 3.1.0.1
#
DISCID=060f7f13
DTITLE=Nu Country Traxx Volume 217 US
DYEAR=2017
DGENRE=country
TTITLE0=Thomas Rhett ft. Maren Morris - Craving You
TTITLE1=Brad Paisley - Last Time For Everything
TTITLE2=Jason Aldean - They Don't Know
TTITLE3=Jake Owen - Good Company
TTITLE4=Jon Pardi - Heartache On The Dancefloor
TTITLE5=Todd O'Neill - Love Again
TTITLE6=Devin Dawson - All On Me
TTITLE7=Miranda Lambert - Tin Man
TTITLE8=Jamie Lee Thurston - Givin' Up Breathin'
TTITLE9=Parmalee - Sunday Morning
TTITLE10=Micks - Chasing Forever
TTITLE11=Lucas Hoge - Dirty South
TTITLE12=Arista Manning - Southern Drawl
TTITLE13=Linde LaChance - Where We'd Be
TTITLE14=Bobby Wills - Get While The Gettin's Good
TTITLE15=Camille Rae - I Need Me
TTITLE16=Kayla Calabrese - Me Time
TTITLE17=Jeremy Michael - Talk
TTITLE18=Joe Lasher Jr. - Tap A Little Tail Light
EXTD=
EXTT0=
EXTT1=
EXTT2=
EXTT3=
EXTT4=
EXTT5=
EXTT6=
EXTT7=
EXTT8=
EXTT9=
EXTT10=
EXTT11=
EXTT12=
EXTT13=
EXTT14=
EXTT15=
EXTT16=
EXTT17=
EXTT18=
PLAYORDER=
